<svg xmlns="http://www.w3.org/2000/svg" viewBox="0 0 420.6 347.8" xml:space="preserve"><path d="M99.2 345c-85.3 2-94-67.4-86.9-110.7L29.1 88.9c7.1-61 30.1-78.8 101.7-80.9l190.7-5.2c85.3-2 94 67.4 86.9 110.7l-16.8 145.4c-7.1 61-30.1 78.8-101.7 80.9z" style="opacity:.9;fill-rule:evenodd;clip-rule:evenodd;fill:#002d72"/><path d="M279.5 241.3H313l-48.3-73.2 62-61.7h-55.3L148.2 230.2l22.7-123.7h-30.3L94.1 137l-.2 34.8 28.1-13.4-3.9 11.4c-4.3 23.8-8.7 47.6-12.9 71.4l90.1-.1 37.3-39.8 15.3 23.2c8.2 10.8 16.5 15.5 31.6 16.8M206.7 157l-32.5-50.6h37.2c10.4 1 20.8 4.7 27.5 13.3l2.1 3.1z" style="fill-rule:evenodd;clip-rule:evenodd;fill:#fff"/></svg>
